<svg width="374" height="374" fill="none" xmlns="http://www.w3.org/2000/svg"><path fill-rule="evenodd" clip-rule="evenodd" d="M300.389 230.287c-10.316 35.529-29.868 72.681-65.451 82.723-34.476 9.729-65.538-17.081-94.997-37.445-27.849-19.25-58.213-38.988-63.892-72.387-6.09-35.819 8.613-72.557 34.999-97.537 25.97-24.586 62.688-34.271 97.918-28.297 33.492 5.679 60.112 28.881 77.548 58.05 17.249 28.857 23.256 62.587 13.875 94.893Z" fill="url(#a)"/><path d="M307.065 207.233c-155.432-18.077-146.382 28.91-122.428 54.663 2.701 15.3 39.396 10.618 57.405 6.364 3.256-5.551 14.895-17.127 35.405-19.018 20.51-1.89 17.697-7.143 13.726-9.533 30.735-6.4 17.807-10.256 7.501-11.384 89.139-3.193 37.601-18.155 8.391-21.092Z" fill="#D9D9D9"/><path d="M310.967 209.068c-158.479-16.326-147.774 30.933-122.612 56.603 3.236 15.391 40.362 10.222 58.52 5.714 3.129-5.636 14.581-17.448 35.355-19.605 20.774-2.156 17.747-7.417 13.637-9.778 31.017-6.827 17.759-10.557 7.254-11.568 77.718-10.843 37.613-18.762 7.846-21.366Z" fill="url(#b)"/><path stroke="#FF6B0A" stroke-width="3" stroke-linecap="round" d="m168.577 283.003-26.271 9.798M130.125 298.757l11.501-6.677M132.839 292.06l8.773-.562M134.26 303.099l8.374-10.857"/><path d="M75.722 182.623c156.178 9.736 138.949 54.378 110.813 75.481-5.368 14.58-40.654 3.473-57.625-3.902-2.222-6.041-11.627-19.495-31.477-24.988-19.851-5.493-16.152-10.164-11.821-11.813-29.116-11.743-15.71-13.248-5.366-12.533-87.164-18.929-33.792-24.527-4.524-22.245Z" fill="#D9D9D9"/><path d="M71.187 185.793c158.865 11.999 139.961 56.614 110.65 77.422-5.91 14.575-41.534 2.913-58.607-4.739-2.081-6.102-11.26-19.755-31.324-25.556-20.064-5.802-16.153-10.443-11.69-12.039-29.317-12.213-15.609-13.536-5.09-12.671-74.57-24.435-33.697-25.126-3.939-22.417Z" fill="url(#c)"/><path d="M238.278 241.027c-6.719 31.332-51.917 78.799-178.954 18.019 60.929-26.004 182.02-66.013 178.954-18.019Z" fill="url(#d)"/><path d="M187.249 159.004c-6.045-14.51 2.519-20.152 7.557-21.16 3.779 2.519 17.23 7.557 10.58 7.557s-4.786 9.069-3.023 13.603c32.647 44.133 13.603 68.769 3.779 75.571-11.336-4.534-30.228-14.963-15.114-20.404 18.892-6.802 3.778-37.03-3.779-55.167Z" fill="#fff"/><ellipse cx="180.499" cy="270.751" rx="10.822" ry="41.94" transform="rotate(74.287 180.499 270.751)" fill="url(#e)"/><path stroke="#FF6B0A" stroke-width="3" stroke-linecap="round" d="m153.136 281-27.43 5.812M113.038 292.214l12.198-5.294M116.512 285.878l8.779.462M116.64 297.008l9.579-9.81"/><path d="M228.694 166.772c-21.431 11.817-31.379 4.924-33.674 0-15.648-9.304-12.018-41.061 14.772-41.061 26.789 0 45.692 26.289 18.902 41.061Z" fill="#fff"/><path d="m214.013 158.101 3.412-2.197a29.067 29.067 0 0 1 20.699-4.203c.406.071.732.374.83.774l7.051 28.556c.456 1.846-1.679 3.227-3.176 2.053l-28.923-22.688a1.41 1.41 0 0 1 .107-2.295Z" fill="#DF5B04"/><path d="m213.404 157.938 2.797-1.74a32.18 32.18 0 0 1 22.114-4.444c.3.049.569.214.747.459l17.658 24.294c1.214 1.671-.592 3.862-2.464 2.989l-40.698-18.989c-1.053-.492-1.141-1.956-.154-2.569Z" fill="#FF6B0A"/><circle r="2.754" transform="matrix(-1 0 0 1 238.083 144.489)" fill="#797979"/><circle r="2.754" transform="matrix(-1 0 0 1 209.791 147.243)" fill="#797979"/><path d="m229.749 110.093-.623-3.29-39.323 7.457 3.383 17.84 1.382-.263 32.794-4.136 5.147-3.058-2.352-12.401.193-.01-.028-2.143-.573.004Z" fill="#373500"/><ellipse rx="20.586" ry="2.046" transform="scale(-1 1) rotate(10.738 -711.2 -1060.873)" fill="#0C0632"/><path d="M232.974 124.614c13.397.772 26.114 18.11-29.773 8.959l29.773-8.959Z" fill="#373500"/><path d="M233.067 124.469c-2.085 6.205-35.895 12.285-40.465 7.673l-2.68-14.346c5.962.806 16.57-4.576 25.741-3.003l11.715 10.423 2.944-15.127 2.745 14.38Z" fill="#494600"/><ellipse rx="20.007" ry="2.046" transform="scale(-1 1) rotate(10.738 -694.157 -1059.308)" fill="#373500"/><ellipse rx="20.289" ry="2.046" transform="scale(-1 1) rotate(10.738 -711.347 -1059.292)" fill="#373500"/><path d="M225.428 112.39c-.06.076-.111.135-.152.199-.349.523-.489 1.033-.387 1.647.043.26.117.518.177.772.053.225.105.446.154.672.012.059.029.08.096.065.141-.037.281-.015.385.097a.326.326 0 0 1 .075.339c-.036.126-.131.205-.25.252-.06.022-.109.012-.162-.033a3.668 3.668 0 0 1-.953-1.203c-.193-.386-.306-.802-.433-1.208-.073-.231-.157-.463-.222-.697a1.448 1.448 0 0 0-.183-.409.99.99 0 0 0-.339-.312.796.796 0 0 0-.067.448c.024.141.066.284.109.417.048.146.115.284.169.423.146.368.295.734.429 1.107.218.621.269 1.258.141 1.904-.014.087-.064.127-.143.146-.199.053-.397-.043-.462-.223-.06-.168.035-.373.221-.449.067-.029.063-.054.034-.107-.14-.279-.279-.564-.416-.845-.159-.318-.298-.643-.547-.906-.328-.347-.693-.528-1.163-.635l-.117-.021.03.084 1.641 4.582c.032.088.032.088.117.058l.958-.343c.056-.02.086-.013.118.039.245.391.589.665 1.034.804.092.03.182.079.274.118.106-.273.309-.508.374-.807.053-.245.078-.493.039-.741-.006-.056.012-.081.06-.098l.975-.349c.056-.02.076-.041.053-.105l-1.651-4.611c.005-.011-.001-.027-.016-.071Zm-.1.84c.01.001.022-.003.031-.002l.031.084.782 2.185c.045.124.045.124-.084.17-.049.018-.077.014-.106-.03a.608.608 0 0 0-.397-.232c-.068-.012-.089-.045-.101-.104-.063-.289-.123-.584-.197-.869a1.853 1.853 0 0 1-.034-.841c.019-.124.051-.24.075-.361Zm-3.314 1.2c.008-.003.011-.008.019-.011.036.023.071.047.103.072.243.183.439.325.581.595.178.343.347.689.52 1.033.025.045.025.082-.013.127a.64.64 0 0 0-.163.433c0 .077-.039.109-.151.126-.068.011-.061-.045-.074-.081l-.797-2.226a.188.188 0 0 1-.025-.068Zm3.686 2.311a.934.934 0 0 0 .067-.042c.233-.147.386-.342.374-.631-.001-.04.009-.062.047-.071l.084-.03c.041-.015.062-.004.077.036.107.3.216.604.32.906.005.016-.014.063-.03.069-.216.082-.437.161-.656.235-.017.006-.059-.011-.069-.025l-.214-.447Zm-1.724.617c.041.166.076.325.116.487.011.046-.021.057-.053.069-.205.073-.408.141-.612.219-.065.023-.093.006-.111-.055-.092-.27-.192-.537-.289-.809-.045-.124-.045-.124.08-.168.036-.013.068-.025.096.015.157.21.376.276.626.263.053-.005.103-.018.147-.021Zm.45-1.434c.223.268.443.527.717.745-.095.129-.183.251-.277.37-.012.018-.055.025-.079.02-.128-.027-.25-.064-.378-.091-.039-.008-.054-.025-.047-.069.061-.297.067-.597.059-.901.004-.024.004-.051.005-.074Zm1.217 1.763c.091.202.019.698-.096.797a.174.174 0 0 1-.011-.005c-.074-.208-.153-.415-.222-.62-.006-.016.014-.05.029-.06.098-.044.2-.076.3-.112Zm-.431.927c-.209-.039-.564-.395-.593-.565l.274-.098c.052-.019.076-.004.093.044l.18.504c.017.034.03.07.046.115Zm.177-1.193c-.052.019-.107.043-.162.054-.016.006-.06-.015-.06-.028-.039-.185.019-.378.174-.478.033-.021.056-.02.077.013.055.102.106.206.162.312.018.039 0 .063-.036.076-.05.014-.102.032-.155.051Zm-.741.266-.141.05c-.047.021-.082.011-.093-.044-.023-.104-.047-.208-.067-.314-.009-.051.011-.072.065-.073.169-.011.364.104.424.259.006.016-.012.054-.027.064-.055.024-.108.039-.161.058Z" fill="#FFD500"/><ellipse rx="10.222" ry="11.157" transform="scale(-1 1) rotate(40.381 -317.534 -193.533)" fill="url(#f)"/><defs><linearGradient id="a" x1="301.374" y1="229.162" x2="81.921" y2="148.838" gradientUnits="userSpaceOnUse"><stop stop-color="#A5DEFF"/><stop offset="1" stop-color="#BDE7FF"/></linearGradient><linearGradient id="b" x1="252.067" y1="203.949" x2="259.673" y2="271.347" gradientUnits="userSpaceOnUse"><stop stop-color="#fff"/><stop offset="1" stop-color="#F5F5F5"/></linearGradient><linearGradient id="c" x1="130.063" y1="191.186" x2="110.641" y2="256.172" gradientUnits="userSpaceOnUse"><stop stop-color="#fff"/><stop offset="1" stop-color="#F9F9F9"/></linearGradient><linearGradient id="d" x1="186.299" y1="225.293" x2="111.066" y2="276.421" gradientUnits="userSpaceOnUse"><stop stop-color="#fff"/><stop offset="1" stop-color="#F5F5F5"/></linearGradient><radialGradient id="e" cx="0" cy="0" r="1" gradientUnits="userSpaceOnUse" gradientTransform="matrix(0 41.9399 -10.8225 0 180.499 270.751)"><stop stop-color="#E8E8E8"/><stop offset="1" stop-color="#EFEFEF" stop-opacity=".5"/></radialGradient><radialGradient id="f" cx="0" cy="0" r="1" gradientUnits="userSpaceOnUse" gradientTransform="matrix(0 11.1574 -10.2219 0 10.222 11.157)"><stop stop-color="#FBB"/><stop offset="1" stop-color="#FBB" stop-opacity="0"/></radialGradient></defs></svg>