<svg width="100" height="32" fill="none" xmlns="http://www.w3.org/2000/svg"><path fill-rule="evenodd" clip-rule="evenodd" d="M43.846 1.104H0v30h43.846l11.539-15-11.539-15Zm-24.19 12.971-.201-.163a18.74 18.74 0 0 0-.506-.4c-.466-.356-.972-.64-1.553-.766-.641-.14-1.288-.19-1.928.003-.912.276-1.547.877-1.966 1.713-.349.696-.442 1.434-.35 2.2.072.601.266 1.159.62 1.653.546.76 1.289 1.198 2.218 1.314.836.104 1.646 0 2.412-.367.262-.125.262-.128.262-.417v-.709c.002-.059.002-.089-.013-.104-.015-.016-.048-.015-.115-.015h-2.488l-.058.001c-.069.001-.102.001-.118-.015-.015-.015-.014-.046-.013-.105V14.918l.001-.017v-.019a.62.62 0 0 0 0-.072c-.005-.057.015-.088.077-.082a.625.625 0 0 0 .073 0H22.192c.04 0 .074.008.068.059-.003.03.016.05.036.072.024.025.049.052.035.097-.012.04-.009.082-.006.125l.003.058v1.106c0 1.474 0 2.948.003 4.422 0 .12-.037.195-.129.27-1.144.948-2.43 1.61-3.886 1.938a8.658 8.658 0 0 1-2.614.177c-1.04-.083-2.03-.35-2.944-.855-1.677-.927-2.733-2.334-3.219-4.172a7.317 7.317 0 0 1-.21-2.473c.255-3.095 2.432-5.51 5.35-6.182.832-.192 1.673-.22 2.522-.163.65.045 1.29.146 1.915.331.937.279 1.764.76 2.517 1.376.088.072.175.144.26.218.108.093.111.145.017.259-.474.57-.948 1.138-1.423 1.706-.237.285-.474.57-.713.854l-.009.011-.009.013a.35.35 0 0 1-.1.1Zm12.096-4.894c1.763.014 3.47.634 4.902 1.937 1.112 1.014 1.793 2.277 2.066 3.75.303 1.64.085 3.211-.73 4.676-.966 1.737-2.44 2.85-4.363 3.354-1.656.434-3.297.347-4.881-.311-2.063-.858-3.396-2.398-4.021-4.514-.56-1.893-.357-3.733.644-5.449.974-1.672 2.44-2.72 4.314-3.207.645-.168 1.254-.235 2.069-.236Zm-.419 3.522c-.967.022-1.965.573-2.589 1.723-.424.781-.523 1.623-.362 2.494.127.686.426 1.295.921 1.794.773.779 1.72 1.085 2.803.96 1.121-.127 1.954-.7 2.488-1.684.454-.838.549-1.734.337-2.657-.35-1.53-1.634-2.635-3.598-2.63Z" fill="#FF6B0A"/><path fill-rule="evenodd" clip-rule="evenodd" d="M99.23 1.104H55.386v30H99.23v-30ZM69.77 9.364V22.462c.001.028.002.055 0 .082-.007.075.014.12.1.107a.475.475 0 0 1 .093 0H73.32c.071.002.105.002.122-.015.015-.016.014-.047.013-.109l-.001-.073V9.352a.47.47 0 0 1 0-.062c.008-.077-.019-.117-.102-.108a.318.318 0 0 1-.051 0h-3.412c-.061-.001-.092-.002-.107.013-.015.016-.015.047-.014.109v.06Zm18.355-.181h-5.497c-1.832 0-3.663 0-5.494-.002h-.124c-.062-.003-.083.026-.079.083V12.5c0 .067 0 .1.016.116s.048.016.11.015h3.496c.113 0 .169 0 .196.028.027.027.027.08.027.187v9.689c-.001.055-.002.084.013.1s.049.016.119.015h3.348c.104 0 .155 0 .18-.025.026-.026.026-.076.026-.175v-9.639l-.001-.056c0-.06-.001-.09.014-.106.016-.018.051-.017.125-.017h3.561c.152 0 .152 0 .153-.149V9.315c.001-.068.002-.101-.015-.118-.016-.016-.05-.016-.115-.015h-.059Z" fill="#010101"/></svg>