<svg width="32" height="52" fill="none" xmlns="http://www.w3.org/2000/svg"><g clip-path="url(#a)"><path d="M29.046 4.837c-8.218 7.974-6.954 20.379-6.897 20.91l.115 1.005.977.118c.288.059 1.954.413 1.724 3.072-.172 2.303-2.7 2.658-3.735 2.776-.862-1.182-3.678-6.084-3.966-20.143v-2.127s.23-5.02.46-7.147L16.058-.361l-1.725 3.544c.23 2.126.46 7.147.46 7.147v2.127c-.287 14.058-3.103 19.02-3.965 20.143-1.092-.06-3.564-.473-3.736-2.777-.23-2.658 1.437-3.012 1.724-3.071l.977-.118.115-1.005c.058-.531 1.322-12.936-6.897-20.91L1 2.888v38.218h8.333c.69 5.611 5.69 9.805 5.92 9.983l.747.65.747-.65c.23-.178 5.288-4.372 5.92-9.983H31V2.888l-1.954 1.949ZM7.609 24.625c-1.207.473-2.643 1.713-2.873 4.076H3.414V8.971c4.195 5.79 4.253 13.173 4.195 15.654Zm1.552 12.818.057 1.182H3.414v-7.502h1.494c.632 2.363 2.701 3.367 4.598 3.78-.345 1.182-.345 2.363-.345 2.54Zm2.414-.059c0-.65.057-1.595.345-2.185 2.126.472 2.7 2.244 2.873 3.485h-3.16l-.058-1.3Zm3.276 9.806c-1.207-1.477-2.644-3.603-3.046-6.084h3.046v6.084Zm1.494-12.464c-.115.118-.23.296-.345.473-.115-.177-.23-.296-.345-.473-.632-.709-1.38-1.3-2.241-1.654.804-1.418 1.781-3.78 2.586-7.738.805 3.958 1.782 6.38 2.586 7.738a5.599 5.599 0 0 0-2.241 1.654Zm.862 12.405v-6.025h3.046c-.345 2.422-1.782 4.548-3.046 6.025Zm3.276-9.747-.058 1.24h-3.16c.172-1.24.747-3.012 2.873-3.484.287.65.345 1.594.345 2.244Zm3.965-12.759c-.115-2.422 0-9.805 4.196-15.653V28.7h-1.322c-.23-2.422-1.61-3.603-2.874-4.076Zm-1.609 14 .058-1.182c0-.177.057-1.358-.288-2.54 1.84-.354 3.908-1.417 4.598-3.78H28.7v7.502H22.84Z" fill="#F2CD13"/></g><defs><clipPath id="a"><path fill="#fff" d="M0 0h32v52H0z"/></clipPath></defs></svg>